# Blender v2.79 (sub 0) OBJ File: 'test.blend'
# www.blender.org
mtllib test.mtl
o Cube
v 1.000000 -1.000000 -1.000000
v 1.000000 -1.000000 1.000000
v -1.000000 -1.000000 1.000000
v -1.000000 -1.000000 -1.000000
v 1.000000 2.179332 -0.999999
v 0.999999 1.000000 1.000001
v -1.000000 1.000000 1.000000
v -1.000000 1.000000 -1.000000
vt 0.000000 -1.000000
vt -1.000000 0.000000
vt 0.000000 0.000000
vt -1.000000 1.000000
vt -0.000000 -0.000000
vt 0.000000 1.000000
vt -1.000000 1.000000
vt -1.000000 0.000000
vt -0.000000 1.000000
vt -1.000000 0.000000
vt 0.000000 0.000000
vt 0.000000 0.000000
vt 1.000000 1.000000
vt 1.000000 0.000000
vt 0.000000 -1.000000
vt -1.000000 0.000000
vt 0.000000 0.589666
vt -1.000000 -1.000000
vt -1.000000 0.000000
vt -0.000000 1.589666
vt -1.000000 1.000000
vt 0.000000 1.000000
vt -1.000000 -1.000000
vn 0.0000 -1.0000 0.0000
vn -0.4529 0.7680 0.4529
vn 1.0000 0.0000 0.0000
vn 0.0000 -0.0000 1.0000
vn -1.0000 -0.0000 -0.0000
vn 0.0000 0.0000 -1.0000
vn 0.0000 1.0000 0.0000
usemtl Material
s off
f 2/1/1 4/2/1 1/3/1
f 8/4/2 6/5/2 5/6/2
f 1/3/3 6/7/3 2/8/3
f 6/9/4 3/10/4 2/11/4
f 3/12/5 8/13/5 4/14/5
f 1/15/6 8/16/6 5/17/6
f 2/1/1 3/18/1 4/2/1
f 8/4/7 7/19/7 6/5/7
f 1/3/3 5/20/3 6/7/3
f 6/9/4 7/21/4 3/10/4
f 3/12/5 7/22/5 8/13/5
f 1/15/6 4/23/6 8/16/6
